Video
ID : 0
Format : xvid
Codec ID : xvid
Duration : 1h 28mn
Bit rate : 1 551 Kbps
Width : 592 pixels
Height : 322 pixels
Display aspect ratio : 16:9
Frame rate : 29.970 fps
Bits/(Pixel*Frame) : 0.272
Stream size : 981 MiB (87%)



Audio
ID : 1
Format : AC-3
Format/Info : Audio Coding 3
Mode extension : CM (complete main)
Codec ID : 2000
Duration : 1h 26mn
Bit rate mode : Constant
Bit rate : 224 Kbps
Channel(s) : 2 channels
Channel positions : Front: L R
Sampling rate : 48.0 KHz
Bit depth : 16 bits
Compression mode : Lossy
Stream size : 138 MiB (12%)
Alignment : Split accross interleaves
Interleave, duration : 34 ms (1.03 video frame)
Interleave, preload duration : 500 ms